<?xml version="1.0" encoding="utf-8"?>
<!-- Generator: Adobe Illustrator 22.1.0, SVG Export Plug-In . SVG Version: 6.00 Build 0)  -->
<svg version="1.1" id="Capa_1" xmlns="http://www.w3.org/2000/svg" xmlns:xlink="http://www.w3.org/1999/xlink" x="0px" y="0px"
	 viewBox="0 0 496 496" style="enable-background:new 0 0 496 496;" xml:space="preserve">
<style type="text/css">
	.st0{fill:#F0BC5E;}
	.st1{fill:#FFFFFF;}
</style>
<g>
	<rect x="48" y="224" class="st0" width="96" height="16"/>
	<rect x="48" y="192" class="st0" width="96" height="16"/>
</g>
<path class="st1" d="M496,240H192v-79c0-18.4-12.5-34.3-30.3-38.8l-33.7-8.4V99.7c9.8-8.8,16-21.5,16-35.7V48c0-26.5-21.5-48-48-48
	S48,21.5,48,48v16c0,14.2,6.2,26.9,16,35.7v14.1l-33.7,8.4C12.5,126.6,0,142.6,0,161v159h40v176h432V288h24V240z M64,48
	c0-17.6,14.4-32,32-32s32,14.4,32,32v16c0,17.6-14.4,32-32,32S64,81.6,64,64V48z M96,112c5.6,0,11-1,16-2.8v7.5l-16,16l-16-16v-7.5
	C85,111,90.4,112,96,112z M16,304V161c0-11,7.5-20.6,18.2-23.3l35.4-8.8L96,155.3l26.5-26.5l35.4,8.8C168.5,140.4,176,150,176,161
	v143h-24V168h-16v88H56v-88H40v136H16z M136,272v208h-32V272H136z M56,272h32v208H56V272z M328,352h-48v-16h48V352z M384,368
	c4.4,0,8,3.6,8,8v16H216v-16c0-4.4,3.6-8,8-8H384z M288,408h32v8h-32V408z M216,408h56v24h64v-24h56v72H216V408z M456,480h-48V376
	c0-13.2-10.8-24-24-24h-40v-16c0-8.8-7.2-16-16-16h-48c-8.8,0-16,7.2-16,16v16h-40c-13.2,0-24,10.8-24,24v104h-48V320h40v-32h264
	V480z M480,272H192v-16h288V272z"/>
<path class="st0" d="M368,288l-79.9-119.8c-10.5-15.8-16.1-34.3-16.1-53.2V112c0-53,43-96,96-96l0,0c53,0,96,43,96,96v2.9
	c0,19-5.6,37.5-16.1,53.2L368,288z"/>
<path class="st1" d="M368,184c-39.7,0-72-32.3-72-72c0-16.1,5.2-31.3,15.2-44.1l12.6,9.8C316.1,87.6,312,99.5,312,112
	c0,30.9,25.1,56,56,56c12.5,0,24.4-4.1,34.3-11.8l9.8,12.6C399.4,178.8,384.1,184,368,184z"/>
<path class="st1" d="M493.7,13.7L482.3,2.3l-61.2,61.2C407.9,49.1,389,40,368,40c-16.1,0-31.3,5.2-44.1,15.2l9.8,12.6
	C343.6,60.1,355.5,56,368,56c16.6,0,31.5,7.3,41.8,18.9L368,116.7l-18.3-18.3l-11.3,11.3l29.7,29.7l50.8-50.8
	c3.3,7.1,5.2,15.1,5.2,23.5c0,12.5-4.1,24.4-11.8,34.3l12.6,9.8c9.9-12.8,15.2-28,15.2-44.1c0-12.8-3.4-24.9-9.3-35.3L493.7,13.7z"
	/>
</svg>
