<?xml version="1.0" encoding="utf-8"?>
<!-- Generator: Adobe Illustrator 22.1.0, SVG Export Plug-In . SVG Version: 6.00 Build 0)  -->
<svg version="1.1" id="Capa_1" xmlns="http://www.w3.org/2000/svg" xmlns:xlink="http://www.w3.org/1999/xlink" x="0px" y="0px"
	 viewBox="0 0 496 496" style="enable-background:new 0 0 496 496;" xml:space="preserve">
<style type="text/css">
	.st0{fill:#F0BC5E;}
	.st1{fill:#FFFFFF;}
</style>
<g>
	<path class="st0" d="M200,130.1v64c17.6,0,32-14.4,32-32S217.6,130.1,200,130.1z"/>
	<path class="st0" d="M200,266.1v64c17.6,0,32-14.4,32-32S217.6,266.1,200,266.1z"/>
	<path class="st0" d="M200,402.1v64c17.6,0,32-14.4,32-32S217.6,402.1,200,402.1z"/>
	<path class="st0" d="M472,466.1v-64c-17.6,0-32,14.4-32,32S454.4,466.1,472,466.1z"/>
	<path class="st0" d="M472,330.1v-64c-17.6,0-32,14.4-32,32S454.4,330.1,472,330.1z"/>
	<path class="st0" d="M472,194.1v-64c-17.6,0-32,14.4-32,32S454.4,194.1,472,194.1z"/>
	<rect x="24" y="178.1" class="st0" width="176" height="64"/>
	<rect x="296" y="258.1" class="st0" width="80" height="16"/>
	<path class="st0" d="M336,10.1L336,10.1c-26.5,0-48,21.5-48,48v24h96v-24C384,31.6,362.5,10.1,336,10.1z"/>
</g>
<path class="st1" d="M496,74.1H368v-16c0-17.6-14.4-32-32-32s-32,14.4-32,32v16H176v16h16v80H0v16h16v224H0v16h16v64h16v-64h160v56
	h16v-392h256v400h16v-400h16V74.1z M192,186.1v48H32v-48H192z M136,314.1H88v-16h48V314.1z M160,330.1v16H64v-16H160z M64,362.1h16
	v8h16v-8h32v8h16v-8h16v48H64V362.1z M176,410.1v-80c0-8.8-7.2-16-16-16h-8v-16c0-8.8-7.2-16-16-16H88c-8.8,0-16,7.2-16,16v16h-8
	c-8.8,0-16,7.2-16,16v80H32v-160h160v160H176z M320,58.1c0-8.8,7.2-16,16-16s16,7.2,16,16v16h-32V58.1z"/>
<path class="st1" d="M392.2,202.3l-32.2-6.7v-1.5h-0.2c9.8-7.3,16.2-18.9,16.2-32v-16c0-22.1-17.9-40-40-40s-40,17.9-40,40v16
	c0,13.1,6.4,24.7,16.2,32H312v1.5l-32.8,6.8c-13.7,3.9-23.2,16.6-23.2,30.8v96.9h32v160h96v-160h32v-96.9
	C416,219,406.5,206.4,392.2,202.3z M312,146.1c0-13.2,10.8-24,24-24s24,10.8,24,24v16c0,13.2-10.8,24-24,24s-24-10.8-24-24V146.1z
	 M304,306.1h24v168h-24V306.1z M344,474.1v-168h24v168H344z M400,314.1h-16v-72h-16v48h-64v-48h-16v72h-16v-80.9
	c0-7.1,4.8-13.4,11-15.2l45-9.3v-7.3c2.6,0.5,5.3,0.8,8,0.8s5.4-0.3,8-0.8v7.3l44.4,9.2c6.8,2,11.6,8.3,11.6,15.4V314.1z"/>
<path class="st1" d="M420.3,62.4c7.6-7.6,11.7-17.6,11.7-28.3s-4.2-20.7-11.7-28.3L409,17.2c4.5,4.5,7,10.6,7,17s-2.5,12.4-7,17
	L420.3,62.4z"/>
<rect x="384" y="26.1" class="st1" width="16" height="16"/>
<path class="st1" d="M263,51.1c-4.5-4.5-7-10.6-7-17s2.5-12.4,7-17L251.7,5.9c-7.6,7.6-11.7,17.6-11.7,28.3s4.2,20.7,11.7,28.3
	L263,51.1z"/>
<rect x="272" y="26.1" class="st1" width="16" height="16"/>
<rect x="48" y="202.1" class="st1" width="16" height="16"/>
<rect x="80" y="202.1" class="st1" width="16" height="16"/>
<rect x="112" y="202.1" class="st1" width="16" height="16"/>
</svg>
