<?xml version="1.0" encoding="utf-8"?>
<!-- Generator: Adobe Illustrator 22.1.0, SVG Export Plug-In . SVG Version: 6.00 Build 0)  -->
<svg version="1.1" id="Capa_1" xmlns="http://www.w3.org/2000/svg" xmlns:xlink="http://www.w3.org/1999/xlink" x="0px" y="0px"
	 viewBox="0 0 496 496" style="enable-background:new 0 0 496 496;" xml:space="preserve">
<style type="text/css">
	.st0{fill:#F0BC5E;}
	.st1{fill:#FFFFFF;}
</style>
<g>
	<path class="st0" d="M168,152v-32h-40v64h8C136,166.3,150.3,152,168,152z"/>
	<path class="st0" d="M328,120v32c17.7,0,32,14.3,32,32h8v-64H328z"/>
</g>
<path class="st1" d="M443.2,353c-2.2-23.6-19.2-43.3-42.2-49l-89-22.3v-21.5c9.6-10.2,16.8-22.8,20.7-36.7
	c19.8-2.4,35.3-19.1,35.3-39.5c0-19.3-13.8-35.5-32-39.2V128h56v-8c0-19.4-14-35.6-32.4-39.2C355.9,35.6,318.1,0,272,0h-48
	c-46.1,0-83.9,35.6-87.6,80.8C118,84.4,104,100.6,104,120v8h56v16.8c-18.2,3.7-32,19.9-32,39.2c0,20.4,15.5,37.2,35.3,39.5
	c3.9,13.9,11.1,26.4,20.7,36.7v21.5L95,304c-23,5.8-39.9,25.4-42.2,49L39.2,496h417.6L443.2,353z M176.5,208H216
	c13.2,0,24-10.8,24-24v-8.3c1.1,0.1,2.2,0.3,3.3,0.3h9.4c1.1,0,2.2-0.2,3.3-0.3v8.3c0,13.2,10.8,24,24,24h39.5
	c-4,35.9-34.5,64-71.5,64S180.5,243.9,176.5,208z M176,160h28.7c5.2,0,10,2,13.7,5.7c1.7,1.7,3.6,3.3,5.7,4.6V184c0,4.4-3.6,8-8,8
	h-40L176,160L176,160z M320,192h-40c-4.4,0-8-3.6-8-8v-13.8c2-1.3,3.9-2.8,5.7-4.6c3.6-3.6,8.5-5.7,13.7-5.7H320V192z M352,184
	c0,10.5-6.9,19.4-16.3,22.6c0.2-2.2,0.3-4.4,0.3-6.6v-38.5C345.3,164.8,352,173.6,352,184z M343.6,80h-48c-1.8-24-11.4-46.3-27.3-64
	h3.7C309,16,339.6,44,343.6,80z M248,18.5c18.3,15.7,29.5,37.6,31.6,61.5h-63.1C218.5,56.1,229.7,34.2,248,18.5z M224,16h3.7
	c-15.9,17.7-25.5,40-27.3,64h-48C156.4,44,187,16,224,16z M144,96h208c10.4,0,19.3,6.7,22.6,16H121.4C124.7,102.7,133.6,96,144,96z
	 M320,128v16h-28.7c-9.4,0-18.3,3.7-25,10.3c-3.6,3.6-8.5,5.7-13.7,5.7h-9.4c-5.2,0-10-2-13.7-5.7c-6.7-6.7-15.5-10.3-25-10.3H176
	v-16H320z M144,184c0-10.4,6.7-19.2,16-22.5V200c0,2.2,0.2,4.4,0.3,6.6C150.9,203.4,144,194.5,144,184z M68.7,354.5
	c1.6-16.8,13.7-30.9,30.1-35L200,294.2v-20.6c13.8,9,30.3,14.3,48,14.3s34.2-5.3,48-14.3v20.6l101.1,25.3
	c16.4,4.1,28.5,18.2,30.1,35l5.1,53.5H388l-4.1-48.7l-15.9,1.3l7.3,87.3h-23.9l-8-96h-55.8v16h41.1l6.7,80H320c-9,0-17.3,3.1-24,8.2
	V416h-16v64h-64v-64h-16v40.2c-6.7-5.1-15-8.2-24-8.2h-15.3l6.7-80h46.6v-16h-61.3l-8,96h-23.9l7.3-87.3l-15.9-1.3L108,408H63.7
	L68.7,354.5z M62.1,424h44.5l-3.3,40H176c10.4,0,19.2,6.7,22.5,16H56.8L62.1,424z M297.5,480c3.3-9.3,12.1-16,22.5-16h72.7l-3.3-40
	h44.5l5.3,56H297.5z"/>
<path class="st1" d="M280,224h-16c0,8.8-7.2,16-16,16s-16-7.2-16-16h-16c0,17.6,14.4,32,32,32S280,241.6,280,224z"/>
<path class="st0" d="M248,440l-39.9-59.9c-5.3-7.9-8.1-17.2-8.1-26.6V352c0-26.5,21.5-48,48-48l0,0c26.5,0,48,21.5,48,48v1.5
	c0,9.5-2.8,18.7-8.1,26.6L248,440z"/>
<path class="st1" d="M248,376c-13.2,0-24-10.8-24-24s10.8-24,24-24s24,10.8,24,24S261.2,376,248,376z M248,344c-4.4,0-8,3.6-8,8
	s3.6,8,8,8s8-3.6,8-8S252.4,344,248,344z"/>
</svg>
