<?xml version="1.0"?>
<svg xmlns="http://www.w3.org/2000/svg" xmlns:xlink="http://www.w3.org/1999/xlink" version="1.1" id="Capa_1" x="0px" y="0px" viewBox="0 0 512 512" style="enable-background:new 0 0 512 512;" xml:space="preserve" width="512px" height="512px" class=""><g><g>
	<g>
		<path d="M437.02,74.981C388.667,26.628,324.38,0,256,0S123.333,26.628,74.98,74.981C26.629,123.333,0,187.62,0,256    s26.629,132.667,74.98,181.019C123.333,485.372,187.62,512,256,512s132.667-26.628,181.02-74.981    C485.371,388.667,512,324.38,512,256S485.371,123.333,437.02,74.981z M256,492C125.869,492,20,386.131,20,256S125.869,20,256,20    s236,105.869,236,236S386.131,492,256,492z" data-original="#000000" class="active-path" data-old_color="#EFEEEE" fill="#F3F3F3"/>
	</g>
</g><g>
	<g>
		<path d="M468.102,214.954c-13.48-70.045-60.708-128.831-126.339-157.253c-5.067-2.195-10.955,0.135-13.15,5.202    c-2.194,5.068,0.135,10.956,5.203,13.15c59.559,25.793,102.417,79.131,114.646,142.68c0.921,4.785,5.111,8.112,9.81,8.112    c0.626,0,1.262-0.059,1.899-0.182C465.594,225.62,469.145,220.377,468.102,214.954z" data-original="#000000" class="active-path" data-old_color="#EFEEEE" fill="#F3F3F3"/>
	</g>
</g><g>
	<g>
		<path d="M302.43,45.005l-0.262-0.057c-5.396-1.164-10.719,2.27-11.881,7.67c-1.163,5.399,2.271,10.718,7.67,11.881l0.117,0.026    c0.734,0.164,1.466,0.242,2.188,0.242c4.58,0,8.712-3.168,9.75-7.824C311.215,51.552,307.82,46.208,302.43,45.005z" data-original="#000000" class="active-path" data-old_color="#EFEEEE" fill="#F3F3F3"/>
	</g>
</g><g>
	<g>
		<path d="M180.443,436.91c-60.787-25.419-104.49-79.117-116.907-143.642c-1.043-5.423-6.279-8.979-11.709-7.93    c-5.424,1.043-8.974,6.286-7.931,11.709c6.731,34.972,22.268,68.082,44.935,95.749c22.405,27.348,51.416,48.982,83.896,62.565    c1.26,0.527,2.568,0.777,3.854,0.777c3.911,0,7.626-2.31,9.229-6.145C187.941,444.898,185.538,439.04,180.443,436.91z" data-original="#000000" class="active-path" data-old_color="#EFEEEE" fill="#F3F3F3"/>
	</g>
</g><g>
	<g>
		<path d="M214.065,447.507l-0.618-0.136c-5.387-1.197-10.733,2.201-11.931,7.592s2.201,10.733,7.593,11.931l0.7,0.154    c0.717,0.156,1.433,0.231,2.138,0.231c4.601,0,8.742-3.195,9.761-7.873C222.883,454.009,219.461,448.682,214.065,447.507z" data-original="#000000" class="active-path" data-old_color="#EFEEEE" fill="#F3F3F3"/>
	</g>
</g><g>
	<g>
		<path d="M459.404,290.293c-5.39-1.177-10.722,2.246-11.899,7.642c-16.697,76.625-77.239,135.712-154.238,150.529    c-5.424,1.043-8.974,6.286-7.931,11.709c0.921,4.785,5.111,8.112,9.81,8.112c0.626,0,1.263-0.059,1.9-0.182    c41.502-7.986,79.502-27.901,109.891-57.591c30.342-29.645,51.128-67.101,60.109-108.32    C468.221,296.796,464.8,291.469,459.404,290.293z" data-original="#000000" class="active-path" data-old_color="#EFEEEE" fill="#F3F3F3"/>
	</g>
</g><g>
	<g>
		<path d="M226.662,51.828c-1.044-5.423-6.286-8.979-11.71-7.93c-41.502,7.986-79.502,27.901-109.891,57.591    c-30.342,29.645-51.128,67.101-60.109,108.32c-1.175,5.396,2.246,10.723,7.642,11.899c0.717,0.156,1.434,0.231,2.139,0.231    c4.601,0,8.742-3.194,9.761-7.873C81.191,137.44,141.733,78.354,218.731,63.537C224.155,62.494,227.705,57.251,226.662,51.828z" data-original="#000000" class="active-path" data-old_color="#EFEEEE" fill="#F3F3F3"/>
	</g>
</g><g>
	<g>
		<path d="M256,222c-18.748,0-34,15.252-34,34s15.252,34,34,34s34-15.252,34-34S274.748,222,256,222z M256,270    c-7.72,0-14-6.28-14-14c0-7.72,6.28-14,14-14c7.72,0,14,6.28,14,14C270,263.72,263.72,270,256,270z" data-original="#000000" class="active-path" data-old_color="#EFEEEE" fill="#F3F3F3"/>
	</g>
</g><g>
	<g>
		<path d="M256.152,40c-5.522,0-10,4.477-10,10v22.408c0,5.523,4.478,10,10,10c5.523,0,10-4.477,10-10V50    C266.152,44.477,261.674,40,256.152,40z" data-original="#000000" class="active-path" data-old_color="#EFEEEE" fill="#F3F3F3"/>
	</g>
</g><g>
	<g>
		<path d="M255.848,422.464c-5.522,0-10,4.477-10,10V462c0,5.523,4.478,10,10,10c5.522,0,10-4.477,10-10v-29.536    C265.848,426.941,261.37,422.464,255.848,422.464z" data-original="#000000" class="active-path" data-old_color="#EFEEEE" fill="#F3F3F3"/>
	</g>
</g><g>
	<g>
		<path d="M462,246.152h-27c-5.522,0-10,4.477-10,10s4.478,10,10,10h27c5.522,0,10-4.477,10-10    C472,250.629,467.522,246.152,462,246.152z" data-original="#000000" class="active-path" data-old_color="#EFEEEE" fill="#F3F3F3"/>
	</g>
</g><g>
	<g>
		<path d="M79,245.848H50c-5.522,0-10,4.477-10,10s4.478,10,10,10h29c5.522,0,10-4.477,10-10C89,250.325,84.522,245.848,79,245.848z    " data-original="#000000" class="active-path" data-old_color="#EFEEEE" fill="#F3F3F3"/>
	</g>
</g><g>
	<g>
		<path d="M232,246h-45.667c-5.522,0-10,4.477-10,10s4.478,10,10,10H232c5.522,0,10-4.477,10-10S237.522,246,232,246z" data-original="#000000" class="active-path" data-old_color="#EFEEEE" fill="#F3F3F3"/>
	</g>
</g><g>
	<g>
		<path d="M256,128.333c-5.522,0-10,4.477-10,10V232c0,5.523,4.478,10,10,10c5.522,0,10-4.477,10-10v-93.667    C266,132.81,261.522,128.333,256,128.333z" data-original="#000000" class="active-path" data-old_color="#EFEEEE" fill="#F3F3F3"/>
	</g>
</g></g> </svg>
