<svg xmlns="http://www.w3.org/2000/svg" viewBox="0 0 126.47 45.9"><defs><style>.cls-1{fill:#FF9100;}</style></defs><title>Ресурс 1</title><g id="Слой_2" data-name="Слой 2"><g id="Layer_1" data-name="Layer 1"><polygon class="cls-1" points="88.07 0 92.23 4.98 8.74 4.98 0 14.6 0 0 88.07 0"/><path class="cls-1" d="M126.47,45.9l-3.14-3.76H42.53L14.65,11.45,0,27.58V45.9ZM12.26,32.26H6V26h6.29Zm0,9.88H6V35.86h6.29Zm10.43-9.88H16.41V26h6.28Zm0,9.88H16.41V35.86h6.28Z"/><path class="cls-1" d="M41.18,23.6l.59-1.05a1.43,1.43,0,0,0,1,.46,1,1,0,0,0,1-1V17.73h1.35V22a2,2,0,0,1-2.24,2.21A2.35,2.35,0,0,1,41.18,23.6Z"/><path class="cls-1" d="M46.09,20.92a3.34,3.34,0,1,1,3.33,3.3A3.21,3.21,0,0,1,46.09,20.92Zm5.27,0a1.94,1.94,0,1,0-3.87,0,1.94,1.94,0,1,0,3.87,0Z"/><path class="cls-1" d="M58.12,24.1l-3-4.16V24.1H53.72V17.73h1.39l3,4v-4h1.36V24.1Z"/><path class="cls-1" d="M63.14,24.1V17.73h2.52a3.19,3.19,0,1,1,0,6.37Zm4.52-3.18a1.87,1.87,0,0,0-2-2H64.5v4h1.16A1.91,1.91,0,0,0,67.66,20.92Z"/><path class="cls-1" d="M70,24.1V17.73h4.52v1.19H71.37v1.35h3.09v1.19H71.37v1.45h3.16V24.1Z"/><path class="cls-1" d="M75.16,23.21l.74-1a2.77,2.77,0,0,0,2,.86c.75,0,1.11-.34,1.11-.7,0-1.13-3.67-.36-3.67-2.76,0-1.06.92-1.94,2.42-1.94a3.58,3.58,0,0,1,2.49.89l-.76,1a2.77,2.77,0,0,0-1.85-.69c-.59,0-.91.25-.91.64,0,1,3.66.33,3.66,2.71,0,1.17-.83,2-2.55,2A3.64,3.64,0,0,1,75.16,23.21Z"/><path class="cls-1" d="M81.33,24.1V17.73h1.36V24.1Z"/><path class="cls-1" d="M83.65,20.92A3.23,3.23,0,0,1,87,17.62a3,3,0,0,1,2.64,1.43l-1.13.61A1.8,1.8,0,0,0,87,18.83a2,2,0,0,0-2,2.09A2,2,0,0,0,87,23a2.14,2.14,0,0,0,1.36-.48v-.77H86.72V20.58h3V23A3.54,3.54,0,0,1,87,24.23,3.25,3.25,0,0,1,83.65,20.92Z"/><path class="cls-1" d="M95.24,24.1l-3-4.16V24.1H90.84V17.73h1.4l3,4v-4h1.36V24.1Z"/><path class="cls-1" d="M41.24,29.46c.31,0,.49-.17.58-1L42,26.92h2.18v2.49h.28v1.14H43.8V30H41.89v.57h-.65Zm.86-.05h1.42V27.49h-.93l-.12,1A1.39,1.39,0,0,1,42.1,29.41Z"/><path class="cls-1" d="M46.22,30V26.92h.65v2l1.43-2H49V30h-.66V27.93L46.85,30Z"/><path class="cls-1" d="M50.74,29.55l.34-.44a1.37,1.37,0,0,0,.9.35c.41,0,.64-.16.64-.39s-.22-.35-.67-.35h-.63v-.58H52c.36,0,.62-.1.62-.33s-.28-.36-.62-.36a1.24,1.24,0,0,0-.84.32l-.32-.41A1.61,1.61,0,0,1,52,26.87c.72,0,1.21.32,1.21.83a.75.75,0,0,1-.66.7.78.78,0,0,1,.71.74c0,.53-.53.9-1.26.9A1.7,1.7,0,0,1,50.74,29.55Z"/><path class="cls-1" d="M57.26,30l-.19-.51H55.75l-.19.51h-.74L56,26.92h.82L58,30Zm-.85-2.41-.48,1.32h1Z"/><path class="cls-1" d="M59.67,30V26.92h.65v2l1.43-2h.67V30h-.66V27.93L60.3,30Zm1.38-3.21a1,1,0,0,1-.81-.4l.26-.22a.66.66,0,0,0,1.09,0l.26.22A1,1,0,0,1,61.05,26.77Z"/><path class="cls-1" d="M66.51,30V28.7H65.06V30h-.65V26.92h.65v1.2h1.45v-1.2h.66V30Z"/><path class="cls-1" d="M69,28.67v-.5h1.1v.5Z"/><path class="cls-1" d="M71.76,28.45a1.56,1.56,0,0,1,1.64-1.58,1.4,1.4,0,0,1,1.28.75l-.56.27a.83.83,0,0,0-.72-.44,1,1,0,0,0,0,2,.82.82,0,0,0,.72-.45l.56.28A1.41,1.41,0,0,1,73.4,30,1.56,1.56,0,0,1,71.76,28.45Z"/><path class="cls-1" d="M77.16,30V27.49h-.89v-.57h2.44v.57h-.89V30Z"/><path class="cls-1" d="M80.23,29.82l.25-.53a.66.66,0,0,0,.39.17c.23,0,.33-.09.45-.32l-1.13-2.22h.74l.76,1.63.76-1.63h.74L81.93,29.4a1,1,0,0,1-1,.64A1.14,1.14,0,0,1,80.23,29.82Z"/><path class="cls-1" d="M84.46,29.46c.31,0,.49-.17.58-1l.18-1.57H87.4v2.49h.28v1.14H87V30H85.11v.57h-.65Zm.86-.05h1.43V27.49h-.94l-.12,1A1.34,1.34,0,0,1,85.32,29.41Z"/><path class="cls-1" d="M89.44,30V26.92h.66v2l1.42-2h.67V30h-.65V27.93L90.07,30Z"/><path class="cls-1" d="M94.05,30l.68-1.16a.88.88,0,0,1-.67-.91,1,1,0,0,1,1-1h1.44V30h-.65V28.89H95.4L94.79,30Zm1.83-1.66v-.83h-.69a.42.42,0,1,0,0,.83Z"/></g></g></svg>